<?xml version="1.0" encoding="UTF-8" standalone="no"?>
<!-- Created with Inkscape (http://www.inkscape.org/) -->

<svg
   xmlns:dc="http://purl.org/dc/elements/1.1/"
   xmlns:cc="http://creativecommons.org/ns#"
   xmlns:rdf="http://www.w3.org/1999/02/22-rdf-syntax-ns#"
   xmlns:svg="http://www.w3.org/2000/svg"
   xmlns="http://www.w3.org/2000/svg"
   xmlns:sodipodi="http://sodipodi.sourceforge.net/DTD/sodipodi-0.dtd"
   xmlns:inkscape="http://www.inkscape.org/namespaces/inkscape"
   width="141.11111mm"
   height="168.52907mm"
   viewBox="0 0 500.00001 597.15024"
   id="svg2"
   version="1.1"
   inkscape:version="0.91 r13725"
   sodipodi:docname="floor-forward.svg"
   inkscape:export-filename="E:\mauricio\dev\creepytracker\Assets\common\icons\floor-forward-icons\floor-forward.png"
   inkscape:export-xdpi="90"
   inkscape:export-ydpi="90">
  <defs
     id="defs4">
    <clipPath
       clipPathUnits="userSpaceOnUse"
       id="clipPath4182">
      <rect
         style="opacity:1;fill:#ce5c00;fill-opacity:1;stroke:none;stroke-width:1;stroke-linecap:round;stroke-linejoin:round;stroke-miterlimit:4;stroke-dasharray:none;stroke-dashoffset:0"
         id="rect4184"
         width="768.57141"
         height="768.57141"
         x="536.31323"
         y="1202.314"
         transform="matrix(0.70710678,-0.70710678,0.70710678,0.70710678,0,0)" />
    </clipPath>
    <clipPath
       clipPathUnits="userSpaceOnUse"
       id="clipPath4182-4">
      <rect
         style="opacity:1;fill:#ce5c00;fill-opacity:1;stroke:none;stroke-width:1;stroke-linecap:round;stroke-linejoin:round;stroke-miterlimit:4;stroke-dasharray:none;stroke-dashoffset:0"
         id="rect4184-5"
         width="768.57141"
         height="768.57141"
         x="536.31323"
         y="1202.314"
         transform="matrix(0.70710678,-0.70710678,0.70710678,0.70710678,0,0)" />
    </clipPath>
    <clipPath
       clipPathUnits="userSpaceOnUse"
       id="clipPath4182-4-0">
      <rect
         style="opacity:1;fill:#ce5c00;fill-opacity:1;stroke:none;stroke-width:1;stroke-linecap:round;stroke-linejoin:round;stroke-miterlimit:4;stroke-dasharray:none;stroke-dashoffset:0"
         id="rect4184-5-4"
         width="768.57141"
         height="768.57141"
         x="536.31323"
         y="1202.314"
         transform="matrix(0.70710678,-0.70710678,0.70710678,0.70710678,0,0)" />
    </clipPath>
    <clipPath
       clipPathUnits="userSpaceOnUse"
       id="clipPath4182-4-7">
      <rect
         style="opacity:1;fill:#ce5c00;fill-opacity:1;stroke:none;stroke-width:1;stroke-linecap:round;stroke-linejoin:round;stroke-miterlimit:4;stroke-dasharray:none;stroke-dashoffset:0"
         id="rect4184-5-6"
         width="768.57141"
         height="768.57141"
         x="536.31323"
         y="1202.314"
         transform="matrix(0.70710678,-0.70710678,0.70710678,0.70710678,0,0)" />
    </clipPath>
  </defs>
  <sodipodi:namedview
     id="base"
     pagecolor="#ffffff"
     bordercolor="#666666"
     borderopacity="1.0"
     inkscape:pageopacity="0.0"
     inkscape:pageshadow="2"
     inkscape:zoom="0.49497475"
     inkscape:cx="46.492033"
     inkscape:cy="212.69775"
     inkscape:document-units="px"
     inkscape:current-layer="g4214"
     showgrid="false"
     showguides="false"
     fit-margin-top="0"
     fit-margin-left="0"
     fit-margin-right="0"
     fit-margin-bottom="0"
     inkscape:window-width="1920"
     inkscape:window-height="1017"
     inkscape:window-x="-8"
     inkscape:window-y="32"
     inkscape:window-maximized="1">
    <sodipodi:guide
       position="3638.5043,2190.8304"
       orientation="1,0"
       id="guide4312" />
  </sodipodi:namedview>
  <metadata
     id="metadata7">
    <rdf:RDF>
      <cc:Work
         rdf:about="">
        <dc:format>image/svg+xml</dc:format>
        <dc:type
           rdf:resource="http://purl.org/dc/dcmitype/StillImage" />
        <dc:title />
      </cc:Work>
    </rdf:RDF>
  </metadata>
  <g
     inkscape:label="Camada 1"
     inkscape:groupmode="layer"
     id="layer1"
     transform="translate(-1072.8473,-205.5139)">
    <g
       id="g4210"
       transform="matrix(0.598513,0,0,1,1043.9195,0)">
      <g
         id="g4214"
         transform="translate(182.27921,-8.0812204)">
        <path
           style="opacity:1;fill:#729fcf;fill-opacity:1;stroke:none;stroke-width:1;stroke-linecap:round;stroke-linejoin:round;stroke-miterlimit:4;stroke-dasharray:none;stroke-dashoffset:0"
           d="m -11.555891,640.53962 a 417.86516,250.09773 0 0 1 0,-353.69243 417.86516,250.09773 0 0 1 590.951031,0 417.86516,250.09773 0 0 1 9.31475,347.5293 c -2.16481,2.05927 -4.85412,4.09047 -8.03954,5.99725 L 310.37006,802.15203 c -14.00527,8.3823 -32.02834,11.09186 -40.41117,6.07484 L 2.5096509,648.15502 A 417.86516,250.09773 0 0 1 -11.55622,640.53953 Z m 73.553638,-44.02291 a 313.84581,187.8408 0 0 0 443.844733,2.2e-4 313.84581,187.8408 0 0 0 0,-265.6471 313.84581,187.8408 0 0 0 -443.84605,-3e-5 313.84581,187.8408 0 0 0 0,265.64738 z"
           id="path4308-6-2"
           inkscape:connector-curvature="0" />
      </g>
    </g>
  </g>
</svg>
